<mxfile host="app.diagrams.net" agent="Mozilla/5.0 (Macintosh; Intel Mac OS X 10_15_7) AppleWebKit/537.36 (KHTML, like Gecko) Chrome/140.0.0.0 Safari/537.36" version="28.2.0">
  <diagram name="Page-1" id="DN524RMUwQ7WPgMqwbZE">
    <mxGraphModel dx="1664" dy="1524" grid="1" gridSize="10" guides="1" tooltips="1" connect="1" arrows="1" fold="1" page="1" pageScale="1" pageWidth="850" pageHeight="1100" math="0" shadow="0">
      <root>
        <mxCell id="0" />
        <mxCell id="1" parent="0" />
        <mxCell id="L2retvXBdDTu2Oa6Wr-E-1" value="Persona" style="rounded=0;whiteSpace=wrap;html=1;" vertex="1" parent="1">
          <mxGeometry x="330" y="110" width="130" height="30" as="geometry" />
        </mxCell>
        <mxCell id="L2retvXBdDTu2Oa6Wr-E-2" value="" style="endArrow=none;html=1;rounded=0;exitX=0.5;exitY=0;exitDx=0;exitDy=0;" edge="1" parent="1" source="L2retvXBdDTu2Oa6Wr-E-1" target="L2retvXBdDTu2Oa6Wr-E-3">
          <mxGeometry width="50" height="50" relative="1" as="geometry">
            <mxPoint x="500" y="250" as="sourcePoint" />
            <mxPoint x="620" y="80" as="targetPoint" />
          </mxGeometry>
        </mxCell>
        <mxCell id="L2retvXBdDTu2Oa6Wr-E-3" value="nombres" style="ellipse;whiteSpace=wrap;html=1;" vertex="1" parent="1">
          <mxGeometry x="580" y="40" width="60" height="30" as="geometry" />
        </mxCell>
        <mxCell id="L2retvXBdDTu2Oa6Wr-E-4" value="" style="endArrow=none;html=1;rounded=0;exitX=0.5;exitY=0;exitDx=0;exitDy=0;entryX=0;entryY=1;entryDx=0;entryDy=0;" edge="1" parent="1" source="L2retvXBdDTu2Oa6Wr-E-1" target="L2retvXBdDTu2Oa6Wr-E-5">
          <mxGeometry width="50" height="50" relative="1" as="geometry">
            <mxPoint x="430" y="115" as="sourcePoint" />
            <mxPoint x="510" y="70" as="targetPoint" />
          </mxGeometry>
        </mxCell>
        <mxCell id="L2retvXBdDTu2Oa6Wr-E-5" value="apellidos" style="ellipse;whiteSpace=wrap;html=1;" vertex="1" parent="1">
          <mxGeometry x="520" y="30" width="60" height="30" as="geometry" />
        </mxCell>
        <mxCell id="L2retvXBdDTu2Oa6Wr-E-6" value="" style="endArrow=none;html=1;rounded=0;exitX=0.5;exitY=0;exitDx=0;exitDy=0;entryX=0.5;entryY=1;entryDx=0;entryDy=0;" edge="1" parent="1" source="L2retvXBdDTu2Oa6Wr-E-1" target="L2retvXBdDTu2Oa6Wr-E-11">
          <mxGeometry width="50" height="50" relative="1" as="geometry">
            <mxPoint x="440" y="210" as="sourcePoint" />
            <mxPoint x="420" y="70" as="targetPoint" />
          </mxGeometry>
        </mxCell>
        <mxCell id="L2retvXBdDTu2Oa6Wr-E-7" value="" style="endArrow=none;html=1;rounded=0;exitX=0.5;exitY=0;exitDx=0;exitDy=0;entryX=1;entryY=1;entryDx=0;entryDy=0;" edge="1" parent="1" source="L2retvXBdDTu2Oa6Wr-E-1" target="L2retvXBdDTu2Oa6Wr-E-13">
          <mxGeometry width="50" height="50" relative="1" as="geometry">
            <mxPoint x="520" y="260" as="sourcePoint" />
            <mxPoint x="645" y="220" as="targetPoint" />
          </mxGeometry>
        </mxCell>
        <mxCell id="L2retvXBdDTu2Oa6Wr-E-8" value="" style="endArrow=none;html=1;rounded=0;exitX=0.5;exitY=0;exitDx=0;exitDy=0;entryX=0.755;entryY=0.918;entryDx=0;entryDy=0;entryPerimeter=0;" edge="1" parent="1" source="L2retvXBdDTu2Oa6Wr-E-1" target="L2retvXBdDTu2Oa6Wr-E-15">
          <mxGeometry width="50" height="50" relative="1" as="geometry">
            <mxPoint x="480" y="280" as="sourcePoint" />
            <mxPoint x="200" y="70" as="targetPoint" />
          </mxGeometry>
        </mxCell>
        <mxCell id="L2retvXBdDTu2Oa6Wr-E-9" value="" style="endArrow=none;html=1;rounded=0;exitX=0.431;exitY=1.021;exitDx=0;exitDy=0;entryX=0.5;entryY=0;entryDx=0;entryDy=0;exitPerimeter=0;" edge="1" parent="1" source="L2retvXBdDTu2Oa6Wr-E-22" target="L2retvXBdDTu2Oa6Wr-E-14">
          <mxGeometry width="50" height="50" relative="1" as="geometry">
            <mxPoint x="480" y="280" as="sourcePoint" />
            <mxPoint x="605" y="240" as="targetPoint" />
          </mxGeometry>
        </mxCell>
        <mxCell id="L2retvXBdDTu2Oa6Wr-E-10" value="" style="endArrow=none;html=1;rounded=0;exitX=0.5;exitY=0;exitDx=0;exitDy=0;entryX=0.5;entryY=1;entryDx=0;entryDy=0;" edge="1" parent="1" source="L2retvXBdDTu2Oa6Wr-E-1" target="L2retvXBdDTu2Oa6Wr-E-12">
          <mxGeometry width="50" height="50" relative="1" as="geometry">
            <mxPoint x="400" y="290" as="sourcePoint" />
            <mxPoint x="370" y="60" as="targetPoint" />
          </mxGeometry>
        </mxCell>
        <mxCell id="L2retvXBdDTu2Oa6Wr-E-11" value="telefono" style="ellipse;whiteSpace=wrap;html=1;" vertex="1" parent="1">
          <mxGeometry x="450" y="20" width="60" height="30" as="geometry" />
        </mxCell>
        <mxCell id="L2retvXBdDTu2Oa6Wr-E-12" value="email" style="ellipse;whiteSpace=wrap;html=1;" vertex="1" parent="1">
          <mxGeometry x="380" y="20" width="60" height="30" as="geometry" />
        </mxCell>
        <mxCell id="L2retvXBdDTu2Oa6Wr-E-13" value="dirección" style="ellipse;whiteSpace=wrap;html=1;" vertex="1" parent="1">
          <mxGeometry x="310" y="20" width="60" height="30" as="geometry" />
        </mxCell>
        <mxCell id="L2retvXBdDTu2Oa6Wr-E-14" value="profesión" style="ellipse;whiteSpace=wrap;html=1;" vertex="1" parent="1">
          <mxGeometry x="55" y="300" width="60" height="30" as="geometry" />
        </mxCell>
        <mxCell id="L2retvXBdDTu2Oa6Wr-E-15" value="&lt;b&gt;&lt;u&gt;run&lt;/u&gt;&lt;/b&gt;" style="ellipse;whiteSpace=wrap;html=1;" vertex="1" parent="1">
          <mxGeometry x="240" y="20" width="60" height="30" as="geometry" />
        </mxCell>
        <mxCell id="L2retvXBdDTu2Oa6Wr-E-16" value="" style="endArrow=none;html=1;rounded=0;entryX=0;entryY=0.5;entryDx=0;entryDy=0;exitX=1;exitY=0.5;exitDx=0;exitDy=0;" edge="1" parent="1" source="L2retvXBdDTu2Oa6Wr-E-122" target="L2retvXBdDTu2Oa6Wr-E-1">
          <mxGeometry width="50" height="50" relative="1" as="geometry">
            <mxPoint x="310" y="190" as="sourcePoint" />
            <mxPoint x="780" y="160" as="targetPoint" />
          </mxGeometry>
        </mxCell>
        <mxCell id="L2retvXBdDTu2Oa6Wr-E-17" value="Trabajador" style="rounded=0;whiteSpace=wrap;html=1;" vertex="1" parent="1">
          <mxGeometry x="130" y="140" width="90" height="30" as="geometry" />
        </mxCell>
        <mxCell id="L2retvXBdDTu2Oa6Wr-E-18" value="" style="endArrow=none;html=1;rounded=0;entryX=0;entryY=0.5;entryDx=0;entryDy=0;exitX=1;exitY=0.5;exitDx=0;exitDy=0;" edge="1" parent="1" source="L2retvXBdDTu2Oa6Wr-E-120" target="L2retvXBdDTu2Oa6Wr-E-1">
          <mxGeometry width="50" height="50" relative="1" as="geometry">
            <mxPoint x="480" y="190" as="sourcePoint" />
            <mxPoint x="575" y="160" as="targetPoint" />
          </mxGeometry>
        </mxCell>
        <mxCell id="L2retvXBdDTu2Oa6Wr-E-19" value="Paciente" style="rounded=0;whiteSpace=wrap;html=1;" vertex="1" parent="1">
          <mxGeometry x="135" y="80" width="85" height="30" as="geometry" />
        </mxCell>
        <mxCell id="L2retvXBdDTu2Oa6Wr-E-21" value="" style="endArrow=none;html=1;rounded=0;exitX=0;exitY=0;exitDx=0;exitDy=0;entryX=0.5;entryY=1;entryDx=0;entryDy=0;" edge="1" parent="1" source="L2retvXBdDTu2Oa6Wr-E-126" target="L2retvXBdDTu2Oa6Wr-E-17">
          <mxGeometry width="50" height="50" relative="1" as="geometry">
            <mxPoint x="380" y="250" as="sourcePoint" />
            <mxPoint x="180" y="200" as="targetPoint" />
          </mxGeometry>
        </mxCell>
        <mxCell id="L2retvXBdDTu2Oa6Wr-E-22" value="Medico" style="rounded=0;whiteSpace=wrap;html=1;" vertex="1" parent="1">
          <mxGeometry x="55" y="240" width="80" height="30" as="geometry" />
        </mxCell>
        <mxCell id="L2retvXBdDTu2Oa6Wr-E-23" value="Administrativo" style="rounded=0;whiteSpace=wrap;html=1;" vertex="1" parent="1">
          <mxGeometry x="192.5" y="240" width="100" height="30" as="geometry" />
        </mxCell>
        <mxCell id="L2retvXBdDTu2Oa6Wr-E-24" value="" style="endArrow=none;html=1;rounded=0;entryX=0.5;entryY=1;entryDx=0;entryDy=0;exitX=0.75;exitY=0;exitDx=0;exitDy=0;" edge="1" parent="1" source="L2retvXBdDTu2Oa6Wr-E-124" target="L2retvXBdDTu2Oa6Wr-E-17">
          <mxGeometry width="50" height="50" relative="1" as="geometry">
            <mxPoint x="333" y="250" as="sourcePoint" />
            <mxPoint x="290" y="220" as="targetPoint" />
          </mxGeometry>
        </mxCell>
        <mxCell id="L2retvXBdDTu2Oa6Wr-E-27" value="InstitucionSalud" style="rounded=0;whiteSpace=wrap;html=1;" vertex="1" parent="1">
          <mxGeometry x="330" y="250" width="130" height="30" as="geometry" />
        </mxCell>
        <mxCell id="L2retvXBdDTu2Oa6Wr-E-28" value="" style="endArrow=none;html=1;rounded=0;entryX=0.5;entryY=1;entryDx=0;entryDy=0;exitX=0.5;exitY=0;exitDx=0;exitDy=0;" edge="1" parent="1" source="L2retvXBdDTu2Oa6Wr-E-29" target="L2retvXBdDTu2Oa6Wr-E-27">
          <mxGeometry width="50" height="50" relative="1" as="geometry">
            <mxPoint x="290" y="260" as="sourcePoint" />
            <mxPoint x="400" y="320" as="targetPoint" />
          </mxGeometry>
        </mxCell>
        <mxCell id="L2retvXBdDTu2Oa6Wr-E-29" value="&lt;u&gt;cod_ministerial&lt;/u&gt;" style="ellipse;whiteSpace=wrap;html=1;" vertex="1" parent="1">
          <mxGeometry x="200" y="310" width="92.5" height="30" as="geometry" />
        </mxCell>
        <mxCell id="L2retvXBdDTu2Oa6Wr-E-30" value="nombre" style="ellipse;whiteSpace=wrap;html=1;" vertex="1" parent="1">
          <mxGeometry x="300" y="310" width="60" height="30" as="geometry" />
        </mxCell>
        <mxCell id="L2retvXBdDTu2Oa6Wr-E-31" value="tipo" style="ellipse;whiteSpace=wrap;html=1;" vertex="1" parent="1">
          <mxGeometry x="365" y="310" width="60" height="30" as="geometry" />
        </mxCell>
        <mxCell id="L2retvXBdDTu2Oa6Wr-E-32" value="enlace" style="ellipse;whiteSpace=wrap;html=1;" vertex="1" parent="1">
          <mxGeometry x="430" y="310" width="60" height="30" as="geometry" />
        </mxCell>
        <mxCell id="L2retvXBdDTu2Oa6Wr-E-33" value="rut" style="ellipse;whiteSpace=wrap;html=1;" vertex="1" parent="1">
          <mxGeometry x="490" y="310" width="60" height="30" as="geometry" />
        </mxCell>
        <mxCell id="L2retvXBdDTu2Oa6Wr-E-34" value="" style="endArrow=none;html=1;rounded=0;entryX=0.5;entryY=1;entryDx=0;entryDy=0;exitX=0.5;exitY=0;exitDx=0;exitDy=0;" edge="1" parent="1" source="L2retvXBdDTu2Oa6Wr-E-30" target="L2retvXBdDTu2Oa6Wr-E-27">
          <mxGeometry width="50" height="50" relative="1" as="geometry">
            <mxPoint x="410" y="270" as="sourcePoint" />
            <mxPoint x="550" y="250" as="targetPoint" />
          </mxGeometry>
        </mxCell>
        <mxCell id="L2retvXBdDTu2Oa6Wr-E-35" value="" style="endArrow=none;html=1;rounded=0;entryX=0.5;entryY=1;entryDx=0;entryDy=0;exitX=0.5;exitY=0;exitDx=0;exitDy=0;" edge="1" parent="1" source="L2retvXBdDTu2Oa6Wr-E-31" target="L2retvXBdDTu2Oa6Wr-E-27">
          <mxGeometry width="50" height="50" relative="1" as="geometry">
            <mxPoint x="370" y="260" as="sourcePoint" />
            <mxPoint x="425" y="240" as="targetPoint" />
          </mxGeometry>
        </mxCell>
        <mxCell id="L2retvXBdDTu2Oa6Wr-E-36" value="" style="endArrow=none;html=1;rounded=0;entryX=0.5;entryY=1;entryDx=0;entryDy=0;exitX=0;exitY=0;exitDx=0;exitDy=0;" edge="1" parent="1" source="L2retvXBdDTu2Oa6Wr-E-32" target="L2retvXBdDTu2Oa6Wr-E-27">
          <mxGeometry width="50" height="50" relative="1" as="geometry">
            <mxPoint x="445" y="260" as="sourcePoint" />
            <mxPoint x="430" y="240" as="targetPoint" />
          </mxGeometry>
        </mxCell>
        <mxCell id="L2retvXBdDTu2Oa6Wr-E-37" value="" style="endArrow=none;html=1;rounded=0;entryX=0.5;entryY=1;entryDx=0;entryDy=0;exitX=0;exitY=0;exitDx=0;exitDy=0;" edge="1" parent="1" source="L2retvXBdDTu2Oa6Wr-E-33" target="L2retvXBdDTu2Oa6Wr-E-27">
          <mxGeometry width="50" height="50" relative="1" as="geometry">
            <mxPoint x="514" y="274" as="sourcePoint" />
            <mxPoint x="450" y="250" as="targetPoint" />
          </mxGeometry>
        </mxCell>
        <mxCell id="L2retvXBdDTu2Oa6Wr-E-38" value="afiliacion" style="rhombus;whiteSpace=wrap;html=1;" vertex="1" parent="1">
          <mxGeometry x="362.5" y="180" width="65" height="40" as="geometry" />
        </mxCell>
        <mxCell id="L2retvXBdDTu2Oa6Wr-E-46" value="Consulta" style="rounded=0;whiteSpace=wrap;html=1;" vertex="1" parent="1">
          <mxGeometry x="-130" y="80" width="130" height="30" as="geometry" />
        </mxCell>
        <mxCell id="L2retvXBdDTu2Oa6Wr-E-48" value="&lt;u&gt;id_consulta&lt;/u&gt;" style="ellipse;whiteSpace=wrap;html=1;" vertex="1" parent="1">
          <mxGeometry x="-330" y="60" width="70" height="30" as="geometry" />
        </mxCell>
        <mxCell id="L2retvXBdDTu2Oa6Wr-E-52" value="atiende" style="rhombus;whiteSpace=wrap;html=1;" vertex="1" parent="1">
          <mxGeometry y="130" width="65" height="40" as="geometry" />
        </mxCell>
        <mxCell id="L2retvXBdDTu2Oa6Wr-E-53" value="" style="endArrow=none;html=1;rounded=0;entryX=0.701;entryY=0.818;entryDx=0;entryDy=0;exitX=0.5;exitY=0;exitDx=0;exitDy=0;entryPerimeter=0;" edge="1" parent="1" source="L2retvXBdDTu2Oa6Wr-E-22" target="L2retvXBdDTu2Oa6Wr-E-52">
          <mxGeometry width="50" height="50" relative="1" as="geometry">
            <mxPoint x="90" y="185" as="sourcePoint" />
            <mxPoint x="130" y="150" as="targetPoint" />
          </mxGeometry>
        </mxCell>
        <mxCell id="L2retvXBdDTu2Oa6Wr-E-54" value="" style="endArrow=none;html=1;rounded=0;entryX=0;entryY=0;entryDx=0;entryDy=0;exitX=0.915;exitY=0.986;exitDx=0;exitDy=0;exitPerimeter=0;" edge="1" parent="1" source="L2retvXBdDTu2Oa6Wr-E-46" target="L2retvXBdDTu2Oa6Wr-E-52">
          <mxGeometry width="50" height="50" relative="1" as="geometry">
            <mxPoint x="96" y="150" as="sourcePoint" />
            <mxPoint x="70" y="130" as="targetPoint" />
          </mxGeometry>
        </mxCell>
        <mxCell id="L2retvXBdDTu2Oa6Wr-E-56" value="recibe" style="rhombus;whiteSpace=wrap;html=1;" vertex="1" parent="1">
          <mxGeometry x="37.5" y="75" width="65" height="40" as="geometry" />
        </mxCell>
        <mxCell id="L2retvXBdDTu2Oa6Wr-E-57" value="" style="endArrow=none;html=1;rounded=0;entryX=1;entryY=0.5;entryDx=0;entryDy=0;exitX=0;exitY=0.5;exitDx=0;exitDy=0;" edge="1" parent="1" source="L2retvXBdDTu2Oa6Wr-E-19" target="L2retvXBdDTu2Oa6Wr-E-56">
          <mxGeometry width="50" height="50" relative="1" as="geometry">
            <mxPoint x="116" y="150" as="sourcePoint" />
            <mxPoint x="90" y="130" as="targetPoint" />
          </mxGeometry>
        </mxCell>
        <mxCell id="L2retvXBdDTu2Oa6Wr-E-58" value="" style="endArrow=none;html=1;rounded=0;entryX=0;entryY=0.5;entryDx=0;entryDy=0;exitX=1;exitY=0.5;exitDx=0;exitDy=0;" edge="1" parent="1" source="L2retvXBdDTu2Oa6Wr-E-46" target="L2retvXBdDTu2Oa6Wr-E-56">
          <mxGeometry width="50" height="50" relative="1" as="geometry">
            <mxPoint x="142" y="90" as="sourcePoint" />
            <mxPoint x="110" y="90" as="targetPoint" />
          </mxGeometry>
        </mxCell>
        <mxCell id="L2retvXBdDTu2Oa6Wr-E-59" value="" style="endArrow=none;html=1;rounded=0;exitX=1;exitY=0.5;exitDx=0;exitDy=0;entryX=0;entryY=0.5;entryDx=0;entryDy=0;" edge="1" parent="1" source="L2retvXBdDTu2Oa6Wr-E-48" target="L2retvXBdDTu2Oa6Wr-E-46">
          <mxGeometry width="50" height="50" relative="1" as="geometry">
            <mxPoint x="-108" y="109" as="sourcePoint" />
            <mxPoint x="-120" y="50" as="targetPoint" />
          </mxGeometry>
        </mxCell>
        <mxCell id="L2retvXBdDTu2Oa6Wr-E-63" value="Receta" style="rounded=0;whiteSpace=wrap;html=1;" vertex="1" parent="1">
          <mxGeometry x="-160" y="200" width="130" height="30" as="geometry" />
        </mxCell>
        <mxCell id="L2retvXBdDTu2Oa6Wr-E-64" value="" style="endArrow=none;html=1;rounded=0;exitX=1.002;exitY=0.395;exitDx=0;exitDy=0;entryX=0;entryY=0.5;entryDx=0;entryDy=0;exitPerimeter=0;" edge="1" parent="1" source="L2retvXBdDTu2Oa6Wr-E-71" target="L2retvXBdDTu2Oa6Wr-E-63">
          <mxGeometry width="50" height="50" relative="1" as="geometry">
            <mxPoint x="-130" y="300" as="sourcePoint" />
            <mxPoint x="-90" y="260" as="targetPoint" />
          </mxGeometry>
        </mxCell>
        <mxCell id="L2retvXBdDTu2Oa6Wr-E-65" value="&lt;u&gt;id_receta&lt;/u&gt;" style="ellipse;whiteSpace=wrap;html=1;" vertex="1" parent="1">
          <mxGeometry x="-280" y="145" width="70" height="30" as="geometry" />
        </mxCell>
        <mxCell id="L2retvXBdDTu2Oa6Wr-E-68" value="fecha" style="ellipse;whiteSpace=wrap;html=1;" vertex="1" parent="1">
          <mxGeometry x="-295" y="220" width="70" height="30" as="geometry" />
        </mxCell>
        <mxCell id="L2retvXBdDTu2Oa6Wr-E-69" value="diagnostico" style="ellipse;whiteSpace=wrap;html=1;" vertex="1" parent="1">
          <mxGeometry x="-300" y="260" width="70" height="30" as="geometry" />
        </mxCell>
        <mxCell id="L2retvXBdDTu2Oa6Wr-E-70" value="es_psicotropica" style="ellipse;whiteSpace=wrap;html=1;" vertex="1" parent="1">
          <mxGeometry x="-310" y="180" width="100" height="30" as="geometry" />
        </mxCell>
        <mxCell id="L2retvXBdDTu2Oa6Wr-E-71" value="cod_auth" style="ellipse;whiteSpace=wrap;html=1;" vertex="1" parent="1">
          <mxGeometry x="-280" y="300" width="70" height="30" as="geometry" />
        </mxCell>
        <mxCell id="L2retvXBdDTu2Oa6Wr-E-72" value="firma_doctor" style="ellipse;whiteSpace=wrap;html=1;" vertex="1" parent="1">
          <mxGeometry x="-280" y="110" width="80" height="30" as="geometry" />
        </mxCell>
        <mxCell id="L2retvXBdDTu2Oa6Wr-E-73" value="Medicamento" style="rounded=0;whiteSpace=wrap;html=1;" vertex="1" parent="1">
          <mxGeometry x="-160" y="320" width="130" height="30" as="geometry" />
        </mxCell>
        <mxCell id="L2retvXBdDTu2Oa6Wr-E-74" value="&lt;u&gt;cod_generico&lt;/u&gt;" style="ellipse;whiteSpace=wrap;html=1;" vertex="1" parent="1">
          <mxGeometry x="-142.5" y="370" width="80" height="30" as="geometry" />
        </mxCell>
        <mxCell id="L2retvXBdDTu2Oa6Wr-E-75" value="nombre_generico" style="ellipse;whiteSpace=wrap;html=1;" vertex="1" parent="1">
          <mxGeometry x="-60" y="370" width="110" height="30" as="geometry" />
        </mxCell>
        <mxCell id="L2retvXBdDTu2Oa6Wr-E-76" value="tipo" style="ellipse;whiteSpace=wrap;html=1;" vertex="1" parent="1">
          <mxGeometry x="-225" y="370" width="70" height="30" as="geometry" />
        </mxCell>
        <mxCell id="L2retvXBdDTu2Oa6Wr-E-77" value="genera" style="rhombus;whiteSpace=wrap;html=1;" vertex="1" parent="1">
          <mxGeometry x="-120" y="135" width="65" height="40" as="geometry" />
        </mxCell>
        <mxCell id="L2retvXBdDTu2Oa6Wr-E-78" value="" style="endArrow=none;html=1;rounded=0;exitX=0.5;exitY=1;exitDx=0;exitDy=0;entryX=0.5;entryY=0;entryDx=0;entryDy=0;" edge="1" parent="1" source="L2retvXBdDTu2Oa6Wr-E-46" target="L2retvXBdDTu2Oa6Wr-E-77">
          <mxGeometry width="50" height="50" relative="1" as="geometry">
            <mxPoint x="-80" y="210" as="sourcePoint" />
            <mxPoint x="-45" y="140" as="targetPoint" />
          </mxGeometry>
        </mxCell>
        <mxCell id="L2retvXBdDTu2Oa6Wr-E-80" value="" style="endArrow=none;html=1;rounded=0;exitX=1;exitY=0.5;exitDx=0;exitDy=0;entryX=0;entryY=0.5;entryDx=0;entryDy=0;" edge="1" parent="1" source="L2retvXBdDTu2Oa6Wr-E-69" target="L2retvXBdDTu2Oa6Wr-E-63">
          <mxGeometry width="50" height="50" relative="1" as="geometry">
            <mxPoint x="-150" y="367" as="sourcePoint" />
            <mxPoint x="-100" y="270" as="targetPoint" />
          </mxGeometry>
        </mxCell>
        <mxCell id="L2retvXBdDTu2Oa6Wr-E-81" value="" style="endArrow=none;html=1;rounded=0;exitX=1;exitY=0.5;exitDx=0;exitDy=0;entryX=0;entryY=0.5;entryDx=0;entryDy=0;" edge="1" parent="1" source="L2retvXBdDTu2Oa6Wr-E-68" target="L2retvXBdDTu2Oa6Wr-E-63">
          <mxGeometry width="50" height="50" relative="1" as="geometry">
            <mxPoint x="-200" y="280" as="sourcePoint" />
            <mxPoint x="-130" y="220" as="targetPoint" />
          </mxGeometry>
        </mxCell>
        <mxCell id="L2retvXBdDTu2Oa6Wr-E-82" value="" style="endArrow=none;html=1;rounded=0;exitX=1;exitY=0.5;exitDx=0;exitDy=0;entryX=0;entryY=0.5;entryDx=0;entryDy=0;" edge="1" parent="1" source="L2retvXBdDTu2Oa6Wr-E-70" target="L2retvXBdDTu2Oa6Wr-E-63">
          <mxGeometry width="50" height="50" relative="1" as="geometry">
            <mxPoint x="-180" y="210" as="sourcePoint" />
            <mxPoint x="-115" y="190" as="targetPoint" />
          </mxGeometry>
        </mxCell>
        <mxCell id="L2retvXBdDTu2Oa6Wr-E-83" value="" style="endArrow=none;html=1;rounded=0;exitX=1;exitY=0.5;exitDx=0;exitDy=0;entryX=0;entryY=0.5;entryDx=0;entryDy=0;" edge="1" parent="1" source="L2retvXBdDTu2Oa6Wr-E-65" target="L2retvXBdDTu2Oa6Wr-E-63">
          <mxGeometry width="50" height="50" relative="1" as="geometry">
            <mxPoint x="-180" y="180" as="sourcePoint" />
            <mxPoint x="-130" y="200" as="targetPoint" />
          </mxGeometry>
        </mxCell>
        <mxCell id="L2retvXBdDTu2Oa6Wr-E-84" value="" style="endArrow=none;html=1;rounded=0;exitX=1;exitY=1;exitDx=0;exitDy=0;entryX=0;entryY=0.5;entryDx=0;entryDy=0;" edge="1" parent="1" source="L2retvXBdDTu2Oa6Wr-E-72" target="L2retvXBdDTu2Oa6Wr-E-63">
          <mxGeometry width="50" height="50" relative="1" as="geometry">
            <mxPoint x="-170" y="200" as="sourcePoint" />
            <mxPoint x="-120" y="255" as="targetPoint" />
          </mxGeometry>
        </mxCell>
        <mxCell id="L2retvXBdDTu2Oa6Wr-E-85" value="incluye" style="rhombus;whiteSpace=wrap;html=1;" vertex="1" parent="1">
          <mxGeometry x="-127.5" y="250" width="65" height="40" as="geometry" />
        </mxCell>
        <mxCell id="L2retvXBdDTu2Oa6Wr-E-86" value="" style="endArrow=none;html=1;rounded=0;exitX=0.5;exitY=1;exitDx=0;exitDy=0;entryX=0.5;entryY=0;entryDx=0;entryDy=0;" edge="1" parent="1" source="L2retvXBdDTu2Oa6Wr-E-63" target="L2retvXBdDTu2Oa6Wr-E-85">
          <mxGeometry width="50" height="50" relative="1" as="geometry">
            <mxPoint x="-60" y="250" as="sourcePoint" />
            <mxPoint x="-90" y="270" as="targetPoint" />
          </mxGeometry>
        </mxCell>
        <mxCell id="L2retvXBdDTu2Oa6Wr-E-89" value="" style="endArrow=none;html=1;rounded=0;exitX=0.5;exitY=1;exitDx=0;exitDy=0;entryX=0.5;entryY=0;entryDx=0;entryDy=0;" edge="1" parent="1" source="L2retvXBdDTu2Oa6Wr-E-73" target="L2retvXBdDTu2Oa6Wr-E-76">
          <mxGeometry width="50" height="50" relative="1" as="geometry">
            <mxPoint x="-140" y="360" as="sourcePoint" />
            <mxPoint x="-140" y="380" as="targetPoint" />
          </mxGeometry>
        </mxCell>
        <mxCell id="L2retvXBdDTu2Oa6Wr-E-90" value="" style="endArrow=none;html=1;rounded=0;exitX=0.5;exitY=1;exitDx=0;exitDy=0;entryX=0.5;entryY=0;entryDx=0;entryDy=0;" edge="1" parent="1" source="L2retvXBdDTu2Oa6Wr-E-73" target="L2retvXBdDTu2Oa6Wr-E-74">
          <mxGeometry width="50" height="50" relative="1" as="geometry">
            <mxPoint x="-15" y="350" as="sourcePoint" />
            <mxPoint x="-110" y="370" as="targetPoint" />
          </mxGeometry>
        </mxCell>
        <mxCell id="L2retvXBdDTu2Oa6Wr-E-91" value="" style="endArrow=none;html=1;rounded=0;exitX=0.5;exitY=1;exitDx=0;exitDy=0;entryX=0.5;entryY=0;entryDx=0;entryDy=0;" edge="1" parent="1" source="L2retvXBdDTu2Oa6Wr-E-73" target="L2retvXBdDTu2Oa6Wr-E-75">
          <mxGeometry width="50" height="50" relative="1" as="geometry">
            <mxPoint x="-53" y="360" as="sourcePoint" />
            <mxPoint x="-60" y="380" as="targetPoint" />
          </mxGeometry>
        </mxCell>
        <mxCell id="L2retvXBdDTu2Oa6Wr-E-92" value="cantidad" style="ellipse;whiteSpace=wrap;html=1;" vertex="1" parent="1">
          <mxGeometry x="-40" y="255" width="70" height="25" as="geometry" />
        </mxCell>
        <mxCell id="L2retvXBdDTu2Oa6Wr-E-93" value="" style="endArrow=none;html=1;rounded=0;entryX=1;entryY=0.5;entryDx=0;entryDy=0;exitX=0;exitY=0.5;exitDx=0;exitDy=0;" edge="1" parent="1" source="L2retvXBdDTu2Oa6Wr-E-92" target="L2retvXBdDTu2Oa6Wr-E-85">
          <mxGeometry width="50" height="50" relative="1" as="geometry">
            <mxPoint x="-40" y="250" as="sourcePoint" />
            <mxPoint x="-60" y="280" as="targetPoint" />
          </mxGeometry>
        </mxCell>
        <mxCell id="L2retvXBdDTu2Oa6Wr-E-95" value="" style="endArrow=none;html=1;rounded=0;exitX=1;exitY=0.5;exitDx=0;exitDy=0;entryX=0;entryY=0.5;entryDx=0;entryDy=0;" edge="1" parent="1" source="L2retvXBdDTu2Oa6Wr-E-38" target="L2retvXBdDTu2Oa6Wr-E-96">
          <mxGeometry width="50" height="50" relative="1" as="geometry">
            <mxPoint x="420" y="200" as="sourcePoint" />
            <mxPoint x="460" y="200" as="targetPoint" />
          </mxGeometry>
        </mxCell>
        <mxCell id="L2retvXBdDTu2Oa6Wr-E-96" value="rol_afiliacion" style="ellipse;whiteSpace=wrap;html=1;" vertex="1" parent="1">
          <mxGeometry x="460" y="175" width="92.5" height="20" as="geometry" />
        </mxCell>
        <mxCell id="L2retvXBdDTu2Oa6Wr-E-97" value="run_titular" style="ellipse;whiteSpace=wrap;html=1;" vertex="1" parent="1">
          <mxGeometry x="460" y="205" width="92.5" height="20" as="geometry" />
        </mxCell>
        <mxCell id="L2retvXBdDTu2Oa6Wr-E-98" value="" style="endArrow=none;html=1;rounded=0;exitX=1;exitY=0.5;exitDx=0;exitDy=0;entryX=0;entryY=0.5;entryDx=0;entryDy=0;" edge="1" parent="1" source="L2retvXBdDTu2Oa6Wr-E-38" target="L2retvXBdDTu2Oa6Wr-E-97">
          <mxGeometry width="50" height="50" relative="1" as="geometry">
            <mxPoint x="440" y="215" as="sourcePoint" />
            <mxPoint x="472" y="200" as="targetPoint" />
          </mxGeometry>
        </mxCell>
        <mxCell id="L2retvXBdDTu2Oa6Wr-E-99" value="" style="endArrow=none;html=1;rounded=0;entryX=0.5;entryY=0;entryDx=0;entryDy=0;exitX=0.5;exitY=1;exitDx=0;exitDy=0;" edge="1" parent="1" source="L2retvXBdDTu2Oa6Wr-E-100" target="L2retvXBdDTu2Oa6Wr-E-46">
          <mxGeometry width="50" height="50" relative="1" as="geometry">
            <mxPoint x="-65" y="60" as="sourcePoint" />
            <mxPoint x="-10" y="70" as="targetPoint" />
          </mxGeometry>
        </mxCell>
        <mxCell id="L2retvXBdDTu2Oa6Wr-E-100" value="genera" style="rhombus;whiteSpace=wrap;html=1;" vertex="1" parent="1">
          <mxGeometry x="-97.5" y="30" width="65" height="40" as="geometry" />
        </mxCell>
        <mxCell id="L2retvXBdDTu2Oa6Wr-E-102" value="Orden" style="rounded=0;whiteSpace=wrap;html=1;" vertex="1" parent="1">
          <mxGeometry x="-130" y="-20" width="130" height="30" as="geometry" />
        </mxCell>
        <mxCell id="L2retvXBdDTu2Oa6Wr-E-103" value="" style="endArrow=none;html=1;rounded=0;entryX=0;entryY=0.5;entryDx=0;entryDy=0;exitX=1;exitY=0.5;exitDx=0;exitDy=0;" edge="1" parent="1" source="L2retvXBdDTu2Oa6Wr-E-104" target="L2retvXBdDTu2Oa6Wr-E-102">
          <mxGeometry width="50" height="50" relative="1" as="geometry">
            <mxPoint x="-160" y="20" as="sourcePoint" />
            <mxPoint x="-40" y="50" as="targetPoint" />
          </mxGeometry>
        </mxCell>
        <mxCell id="L2retvXBdDTu2Oa6Wr-E-104" value="&lt;u&gt;id_orden&lt;/u&gt;&lt;span style=&quot;color: rgba(0, 0, 0, 0); font-family: monospace; font-size: 0px; text-align: start; text-wrap-mode: nowrap;&quot;&gt;%3CmxGraphModel%3E%3Croot%3E%3CmxCell%20id%3D%220%22%2F%3E%3CmxCell%20id%3D%221%22%20parent%3D%220%22%2F%3E%3CmxCell%20id%3D%222%22%20value%3D%22%26lt%3Bu%26gt%3Bid_consulta%26lt%3B%2Fu%26gt%3B%22%20style%3D%22ellipse%3BwhiteSpace%3Dwrap%3Bhtml%3D1%3B%22%20vertex%3D%221%22%20parent%3D%221%22%3E%3CmxGeometry%20x%3D%22-330%22%20y%3D%2260%22%20width%3D%2270%22%20height%3D%2230%22%20as%3D%22geometry%22%2F%3E%3C%2FmxCell%3E%3C%2Froot%3E%3C%2FmxGraphModel%3E&lt;/span&gt;" style="ellipse;whiteSpace=wrap;html=1;" vertex="1" parent="1">
          <mxGeometry x="-275" y="-10" width="70" height="20" as="geometry" />
        </mxCell>
        <mxCell id="L2retvXBdDTu2Oa6Wr-E-110" value="" style="endArrow=classic;html=1;rounded=0;exitX=0.5;exitY=0;exitDx=0;exitDy=0;entryX=0.5;entryY=1;entryDx=0;entryDy=0;" edge="1" parent="1" source="L2retvXBdDTu2Oa6Wr-E-63" target="L2retvXBdDTu2Oa6Wr-E-77">
          <mxGeometry width="50" height="50" relative="1" as="geometry">
            <mxPoint x="-70" y="170" as="sourcePoint" />
            <mxPoint x="-20" y="120" as="targetPoint" />
          </mxGeometry>
        </mxCell>
        <mxCell id="L2retvXBdDTu2Oa6Wr-E-111" value="" style="endArrow=classic;html=1;rounded=0;exitX=0.5;exitY=0;exitDx=0;exitDy=0;entryX=0.5;entryY=1;entryDx=0;entryDy=0;" edge="1" parent="1" source="L2retvXBdDTu2Oa6Wr-E-73" target="L2retvXBdDTu2Oa6Wr-E-85">
          <mxGeometry width="50" height="50" relative="1" as="geometry">
            <mxPoint x="-70" y="335" as="sourcePoint" />
            <mxPoint x="-62" y="310" as="targetPoint" />
          </mxGeometry>
        </mxCell>
        <mxCell id="L2retvXBdDTu2Oa6Wr-E-112" value="" style="endArrow=none;html=1;rounded=0;exitX=1;exitY=0.5;exitDx=0;exitDy=0;entryX=0;entryY=0.5;entryDx=0;entryDy=0;" edge="1" parent="1" source="L2retvXBdDTu2Oa6Wr-E-27" target="L2retvXBdDTu2Oa6Wr-E-113">
          <mxGeometry width="50" height="50" relative="1" as="geometry">
            <mxPoint x="410" y="230" as="sourcePoint" />
            <mxPoint x="510" y="265" as="targetPoint" />
          </mxGeometry>
        </mxCell>
        <mxCell id="L2retvXBdDTu2Oa6Wr-E-113" value="PlanIsapre" style="rounded=0;whiteSpace=wrap;html=1;" vertex="1" parent="1">
          <mxGeometry x="520" y="250" width="130" height="30" as="geometry" />
        </mxCell>
        <mxCell id="L2retvXBdDTu2Oa6Wr-E-114" value="run_titular" style="ellipse;whiteSpace=wrap;html=1;" vertex="1" parent="1">
          <mxGeometry x="690" y="230" width="92.5" height="20" as="geometry" />
        </mxCell>
        <mxCell id="L2retvXBdDTu2Oa6Wr-E-115" value="cod_ministerial" style="ellipse;whiteSpace=wrap;html=1;" vertex="1" parent="1">
          <mxGeometry x="690" y="270" width="92.5" height="20" as="geometry" />
        </mxCell>
        <mxCell id="L2retvXBdDTu2Oa6Wr-E-116" value="" style="endArrow=none;html=1;rounded=0;exitX=1;exitY=0.5;exitDx=0;exitDy=0;entryX=0;entryY=0.5;entryDx=0;entryDy=0;" edge="1" parent="1" source="L2retvXBdDTu2Oa6Wr-E-113" target="L2retvXBdDTu2Oa6Wr-E-114">
          <mxGeometry width="50" height="50" relative="1" as="geometry">
            <mxPoint x="660" y="250" as="sourcePoint" />
            <mxPoint x="692" y="240" as="targetPoint" />
          </mxGeometry>
        </mxCell>
        <mxCell id="L2retvXBdDTu2Oa6Wr-E-117" value="" style="endArrow=none;html=1;rounded=0;exitX=1;exitY=0.5;exitDx=0;exitDy=0;entryX=0;entryY=0.5;entryDx=0;entryDy=0;" edge="1" parent="1" source="L2retvXBdDTu2Oa6Wr-E-113" target="L2retvXBdDTu2Oa6Wr-E-115">
          <mxGeometry width="50" height="50" relative="1" as="geometry">
            <mxPoint x="670" y="315" as="sourcePoint" />
            <mxPoint x="710" y="290" as="targetPoint" />
          </mxGeometry>
        </mxCell>
        <mxCell id="L2retvXBdDTu2Oa6Wr-E-121" value="" style="endArrow=none;html=1;rounded=0;entryX=0;entryY=0.5;entryDx=0;entryDy=0;exitX=1;exitY=0.5;exitDx=0;exitDy=0;" edge="1" parent="1" source="L2retvXBdDTu2Oa6Wr-E-19" target="L2retvXBdDTu2Oa6Wr-E-120">
          <mxGeometry width="50" height="50" relative="1" as="geometry">
            <mxPoint x="220" y="95" as="sourcePoint" />
            <mxPoint x="330" y="125" as="targetPoint" />
          </mxGeometry>
        </mxCell>
        <mxCell id="L2retvXBdDTu2Oa6Wr-E-120" value="isA" style="rhombus;whiteSpace=wrap;html=1;" vertex="1" parent="1">
          <mxGeometry x="247.5" y="90" width="42.5" height="30" as="geometry" />
        </mxCell>
        <mxCell id="L2retvXBdDTu2Oa6Wr-E-122" value="isA" style="rhombus;whiteSpace=wrap;html=1;" vertex="1" parent="1">
          <mxGeometry x="247.5" y="145" width="32.5" height="35" as="geometry" />
        </mxCell>
        <mxCell id="L2retvXBdDTu2Oa6Wr-E-123" value="" style="endArrow=none;html=1;rounded=0;entryX=0;entryY=0.5;entryDx=0;entryDy=0;exitX=1;exitY=0.5;exitDx=0;exitDy=0;" edge="1" parent="1" source="L2retvXBdDTu2Oa6Wr-E-17" target="L2retvXBdDTu2Oa6Wr-E-122">
          <mxGeometry width="50" height="50" relative="1" as="geometry">
            <mxPoint x="230" y="210" as="sourcePoint" />
            <mxPoint x="268" y="170" as="targetPoint" />
          </mxGeometry>
        </mxCell>
        <mxCell id="L2retvXBdDTu2Oa6Wr-E-125" value="" style="endArrow=none;html=1;rounded=0;entryX=0;entryY=1;entryDx=0;entryDy=0;exitX=0.75;exitY=0;exitDx=0;exitDy=0;" edge="1" parent="1" source="L2retvXBdDTu2Oa6Wr-E-22" target="L2retvXBdDTu2Oa6Wr-E-124">
          <mxGeometry width="50" height="50" relative="1" as="geometry">
            <mxPoint x="115" y="240" as="sourcePoint" />
            <mxPoint x="175" y="170" as="targetPoint" />
          </mxGeometry>
        </mxCell>
        <mxCell id="L2retvXBdDTu2Oa6Wr-E-124" value="isA" style="rhombus;whiteSpace=wrap;html=1;" vertex="1" parent="1">
          <mxGeometry x="120" y="195" width="42.5" height="30" as="geometry" />
        </mxCell>
        <mxCell id="L2retvXBdDTu2Oa6Wr-E-127" value="" style="endArrow=none;html=1;rounded=0;exitX=0.5;exitY=0;exitDx=0;exitDy=0;entryX=1;entryY=1;entryDx=0;entryDy=0;" edge="1" parent="1" source="L2retvXBdDTu2Oa6Wr-E-23" target="L2retvXBdDTu2Oa6Wr-E-126">
          <mxGeometry width="50" height="50" relative="1" as="geometry">
            <mxPoint x="242" y="240" as="sourcePoint" />
            <mxPoint x="175" y="170" as="targetPoint" />
          </mxGeometry>
        </mxCell>
        <mxCell id="L2retvXBdDTu2Oa6Wr-E-126" value="isA" style="rhombus;whiteSpace=wrap;html=1;" vertex="1" parent="1">
          <mxGeometry x="192.5" y="195" width="42.5" height="30" as="geometry" />
        </mxCell>
        <mxCell id="L2retvXBdDTu2Oa6Wr-E-129" value="" style="endArrow=classic;html=1;rounded=0;entryX=0.5;entryY=0;entryDx=0;entryDy=0;exitX=0.5;exitY=1;exitDx=0;exitDy=0;" edge="1" parent="1" source="L2retvXBdDTu2Oa6Wr-E-1" target="L2retvXBdDTu2Oa6Wr-E-38">
          <mxGeometry width="50" height="50" relative="1" as="geometry">
            <mxPoint x="110" y="250" as="sourcePoint" />
            <mxPoint x="160" y="200" as="targetPoint" />
          </mxGeometry>
        </mxCell>
        <mxCell id="L2retvXBdDTu2Oa6Wr-E-130" value="" style="endArrow=none;html=1;rounded=0;entryX=0.5;entryY=1;entryDx=0;entryDy=0;exitX=0.5;exitY=0;exitDx=0;exitDy=0;" edge="1" parent="1" source="L2retvXBdDTu2Oa6Wr-E-27" target="L2retvXBdDTu2Oa6Wr-E-38">
          <mxGeometry width="50" height="50" relative="1" as="geometry">
            <mxPoint x="410" y="270" as="sourcePoint" />
            <mxPoint x="410" y="240" as="targetPoint" />
          </mxGeometry>
        </mxCell>
        <mxCell id="L2retvXBdDTu2Oa6Wr-E-131" value="" style="endArrow=classic;html=1;rounded=0;exitX=0.5;exitY=1;exitDx=0;exitDy=0;entryX=0.5;entryY=0;entryDx=0;entryDy=0;" edge="1" parent="1" source="L2retvXBdDTu2Oa6Wr-E-102" target="L2retvXBdDTu2Oa6Wr-E-100">
          <mxGeometry width="50" height="50" relative="1" as="geometry">
            <mxPoint x="20" y="55" as="sourcePoint" />
            <mxPoint x="28" y="30" as="targetPoint" />
          </mxGeometry>
        </mxCell>
      </root>
    </mxGraphModel>
  </diagram>
</mxfile>
